<svg xmlns="http://www.w3.org/2000/svg" version="1.1" id="svg" width="962" height="704">
<image href="../images/world_map.png" width="962" height="704" style="filter: brightness(120%);"/>
<line x1="45" y1="92.5" x2="45" y2="132.5" stroke="black" stroke-width="2"></line>
<line x1="570" y1="92.5" x2="570" y2="132.5" stroke="black" stroke-width="2"></line>
<line x1="570" y1="92.5" x2="675" y2="92.5" stroke="black" stroke-width="2"></line>
<line x1="675" y1="92.5" x2="780" y2="92.5" stroke="black" stroke-width="2"></line>
<line x1="45" y1="132.5" x2="45" y2="212.5" stroke="black" stroke-width="2"></line>
<line x1="465" y1="132.5" x2="570" y2="132.5" stroke="black" stroke-width="2"></line>
<line x1="570" y1="132.5" x2="570" y2="172.5" stroke="black" stroke-width="2"></line>
<line x1="465" y1="172.5" x2="570" y2="172.5" stroke="black" stroke-width="2"></line>
<line x1="570" y1="172.5" x2="570" y2="212.5" stroke="black" stroke-width="2"></line>
<line x1="45" y1="212.5" x2="45" y2="292.5" stroke="black" stroke-width="2"></line>
<line x1="360" y1="212.5" x2="465" y2="212.5" stroke="black" stroke-width="2"></line>
<line x1="360" y1="212.5" x2="360" y2="252.5" stroke="black" stroke-width="2"></line>
<line x1="465" y1="212.5" x2="570" y2="212.5" stroke="black" stroke-width="2"></line>
<line x1="570" y1="212.5" x2="675" y2="212.5" stroke="black" stroke-width="2"></line>
<line x1="675" y1="212.5" x2="570" y2="252.5" stroke="black" stroke-width="2"></line>
<line x1="360" y1="252.5" x2="360" y2="292.5" stroke="black" stroke-width="2"></line>
<line x1="45" y1="292.5" x2="150" y2="292.5" stroke="black" stroke-width="2"></line>
<line x1="150" y1="292.5" x2="360" y2="292.5" stroke="black" stroke-width="2"></line>
<line x1="570" y1="212.5" x2="570" y2="252.5" stroke="black" stroke-width="2"></line>
<line x1="570" y1="252.5" x2="570" y2="332.5" stroke="black" stroke-width="2"></line>
<line x1="570" y1="332.5" x2="570" y2="372.5" stroke="black" stroke-width="2"></line>
<line x1="570" y1="372.5" x2="570" y2="412.5" stroke="black" stroke-width="2"></line>
<line x1="360" y1="412.5" x2="570" y2="412.5" stroke="black" stroke-width="2"></line>
<line x1="360" y1="412.5" x2="360" y2="532.5" stroke="black" stroke-width="2"></line>
<line x1="570" y1="412.5" x2="570" y2="532.5" stroke="black" stroke-width="2"></line>
<line x1="570" y1="412.5" x2="675" y2="492.5" stroke="black" stroke-width="2"></line>
<line x1="465" y1="452.5" x2="465" y2="492.5" stroke="black" stroke-width="2"></line>
<line x1="465" y1="492.5" x2="465" y2="532.5" stroke="black" stroke-width="2"></line>
<line x1="675" y1="492.5" x2="570" y2="532.5" stroke="black" stroke-width="2"></line>
<line x1="675" y1="492.5" x2="780" y2="492.5" stroke="black" stroke-width="2"></line>
<line x1="780" y1="492.5" x2="885" y2="492.5" stroke="black" stroke-width="2"></line>
<line x1="360" y1="532.5" x2="465" y2="532.5" stroke="black" stroke-width="2"></line>
<line x1="360" y1="532.5" x2="360" y2="612.5" stroke="black" stroke-width="2"></line>
<line x1="465" y1="532.5" x2="570" y2="532.5" stroke="black" stroke-width="2"></line>
<line x1="675" y1="532.5" x2="675" y2="572.5" stroke="black" stroke-width="2"></line>
<line x1="675" y1="572.5" x2="675" y2="612.5" stroke="black" stroke-width="2"></line>
<line x1="255" y1="612.5" x2="360" y2="612.5" stroke="black" stroke-width="2"></line>
<line x1="360" y1="612.5" x2="465" y2="612.5" stroke="black" stroke-width="2"></line>
<line x1="465" y1="612.5" x2="570" y2="612.5" stroke="black" stroke-width="2"></line>
<line x1="570" y1="612.5" x2="675" y2="652.5" stroke="black" stroke-width="2"></line>
<line x1="570" y1="612.5" x2="675" y2="612.5" stroke="black" stroke-width="2"></line>
<g>
<rect id="rect-TanzakuCastle" x="0" y="80" rx="12.5" ry="12.5" width="90" height="25" stroke="green" stroke-width="2" fill="rgb(255, 255, 255)"></rect>
<text x="45" y="92.5" font-family="calibri" font-size="11" font-weight="bold" fill="black" text-anchor="middle" alignment-baseline="middle">Tanzaku Castle</text>
</g>
<g>
<rect id="rect-LVSummit" x="525" y="80" rx="12.5" ry="12.5" width="90" height="25" stroke="green" stroke-width="2" fill="rgb(255, 255, 255)"></rect>
<text x="570" y="92.5" font-family="calibri" font-size="11" font-weight="bold" fill="black" text-anchor="middle" alignment-baseline="middle">LV Summit</text>
</g>
<g>
<rect id="rect-MountainSide" x="630" y="80" rx="12.5" ry="12.5" width="90" height="25" stroke="green" stroke-width="2" fill="rgb(255, 255, 255)"></rect>
<text x="675" y="92.5" font-family="calibri" font-size="11" font-weight="bold" fill="black" text-anchor="middle" alignment-baseline="middle">Mountain Side</text>
</g>
<g>
<rect id="rect-MountainPeak" x="735" y="80" rx="12.5" ry="12.5" width="90" height="25" stroke="green" stroke-width="2" fill="rgb(255, 255, 255)"></rect>
<text x="780" y="92.5" font-family="calibri" font-size="11" font-weight="bold" fill="black" text-anchor="middle" alignment-baseline="middle">Mountain Peak</text>
</g>
<g>
<rect id="rect-TanzakuQuarters" x="0" y="120" rx="12.5" ry="12.5" width="90" height="25" stroke="green" stroke-width="2" fill="rgb(255, 255, 255)"></rect>
<text x="45" y="132.5" font-family="calibri" font-size="11" font-weight="bold" fill="black" text-anchor="middle" alignment-baseline="middle">Tanzaku Quarters</text>
</g>
<g>
<rect id="rect-LVHousingDistI" x="420" y="120" rx="12.5" ry="12.5" width="90" height="25" stroke="green" stroke-width="2" fill="rgb(255, 255, 255)"></rect>
<text x="465" y="132.5" font-family="calibri" font-size="11" font-weight="bold" fill="black" text-anchor="middle" alignment-baseline="middle">LV Housing Dist I</text>
</g>
<g>
<rect id="rect-LeafVillage" x="525" y="120" rx="0" ry="0" width="90" height="25" stroke="black" stroke-width="2" fill="orange"></rect>
<text x="570" y="132.5" font-family="calibri" font-size="11" font-weight="bold" fill="black" text-anchor="middle" alignment-baseline="middle">Leaf Village</text>
</g>
<g>
<rect id="rect-SWOutskirts" x="420" y="160" rx="12.5" ry="12.5" width="90" height="25" stroke="green" stroke-width="2" fill="rgb(255, 255, 255)"></rect>
<text x="465" y="172.5" font-family="calibri" font-size="11" font-weight="bold" fill="black" text-anchor="middle" alignment-baseline="middle">SW Outskirts</text>
</g>
<g>
<rect id="rect-LVEntrance" x="525" y="160" rx="12.5" ry="12.5" width="90" height="25" stroke="green" stroke-width="2" fill="rgb(255, 255, 255)"></rect>
<text x="570" y="172.5" font-family="calibri" font-size="11" font-weight="bold" fill="black" text-anchor="middle" alignment-baseline="middle">LV Entrance</text>
</g>
<g>
<rect id="rect-TanzakuQEntrance" x="0" y="200" rx="12.5" ry="12.5" width="90" height="25" stroke="green" stroke-width="2" fill="rgb(255, 255, 255)"></rect>
<text x="45" y="212.5" font-family="calibri" font-size="11" font-weight="bold" fill="black" text-anchor="middle" alignment-baseline="middle">Tanzaku Q Entrance</text>
</g>
<g>
<rect id="rect-MoistPlains" x="315" y="200" rx="12.5" ry="12.5" width="90" height="25" stroke="green" stroke-width="2" fill="rgb(255, 255, 255)"></rect>
<text x="360" y="212.5" font-family="calibri" font-size="11" font-weight="bold" fill="black" text-anchor="middle" alignment-baseline="middle">Moist Plains</text>
</g>
<g>
<rect id="rect-LarvaRoad" x="420" y="200" rx="12.5" ry="12.5" width="90" height="25" stroke="green" stroke-width="2" fill="rgb(255, 255, 255)"></rect>
<text x="465" y="212.5" font-family="calibri" font-size="11" font-weight="bold" fill="black" text-anchor="middle" alignment-baseline="middle">Larva Road</text>
</g>
<g>
<rect id="rect-LVSOutskirts" x="525" y="200" rx="12.5" ry="12.5" width="90" height="25" stroke="green" stroke-width="2" fill="rgb(255, 255, 255)"></rect>
<text x="570" y="212.5" font-family="calibri" font-size="11" font-weight="bold" fill="black" text-anchor="middle" alignment-baseline="middle">LV S Outskirts</text>
</g>
<g>
<rect id="rect-3rdTrainingGrnd" x="630" y="200" rx="12.5" ry="12.5" width="90" height="25" stroke="green" stroke-width="2" fill="rgb(255, 255, 255)"></rect>
<text x="675" y="212.5" font-family="calibri" font-size="11" font-weight="bold" fill="black" text-anchor="middle" alignment-baseline="middle">3rd Training Grnd</text>
</g>
<g>
<rect id="rect-StripedLake" x="315" y="240" rx="12.5" ry="12.5" width="90" height="25" stroke="orange" stroke-width="2" fill="rgb(255, 255, 255)"></rect>
<text x="360" y="252.5" font-family="calibri" font-size="11" font-weight="bold" fill="black" text-anchor="middle" alignment-baseline="middle">Striped Lake</text>
</g>
<g>
<rect id="rect-OutskritsDeadEnd" x="525" y="240" rx="12.5" ry="12.5" width="90" height="25" stroke="green" stroke-width="2" fill="rgb(255, 255, 255)"></rect>
<text x="570" y="252.5" font-family="calibri" font-size="11" font-weight="bold" fill="black" text-anchor="middle" alignment-baseline="middle">Outskrits Dead End</text>
</g>
<g>
<rect id="rect-EndoftheValley" x="0" y="280" rx="12.5" ry="12.5" width="90" height="25" stroke="orange" stroke-width="2" fill="rgb(255, 255, 255)"></rect>
<text x="45" y="292.5" font-family="calibri" font-size="11" font-weight="bold" fill="black" text-anchor="middle" alignment-baseline="middle">End of the Valley</text>
</g>
<g>
<rect id="rect-WestoftheValley" x="105" y="280" rx="12.5" ry="12.5" width="90" height="25" stroke="orange" stroke-width="2" fill="rgb(255, 255, 255)"></rect>
<text x="150" y="292.5" font-family="calibri" font-size="11" font-weight="bold" fill="black" text-anchor="middle" alignment-baseline="middle">West of the Valley</text>
</g>
<g>
<rect id="rect-ValleyoftheEnd" x="315" y="280" rx="12.5" ry="12.5" width="90" height="25" stroke="red" stroke-width="2" fill="rgb(255, 255, 255)"></rect>
<text x="360" y="292.5" font-family="calibri" font-size="11" font-weight="bold" fill="black" text-anchor="middle" alignment-baseline="middle">Valley of the End</text>
</g>
<g>
<rect id="rect-WaterCrossing" x="525" y="240" rx="12.5" ry="12.5" width="90" height="25" stroke="orange" stroke-width="2" fill="rgb(255, 255, 255)"></rect>
<text x="570" y="252.5" font-family="calibri" font-size="11" font-weight="bold" fill="black" text-anchor="middle" alignment-baseline="middle">Water Crossing</text>
</g>
<g>
<rect id="rect-ForestofAmbushes" x="525" y="320" rx="12.5" ry="12.5" width="90" height="25" stroke="orange" stroke-width="2" fill="rgb(255, 255, 255)"></rect>
<text x="570" y="332.5" font-family="calibri" font-size="11" font-weight="bold" fill="black" text-anchor="middle" alignment-baseline="middle">Forest of Ambushes</text>
</g>
<g>
<rect id="rect-IntotheValley" x="525" y="360" rx="12.5" ry="12.5" width="90" height="25" stroke="orange" stroke-width="2" fill="rgb(255, 255, 255)"></rect>
<text x="570" y="372.5" font-family="calibri" font-size="11" font-weight="bold" fill="black" text-anchor="middle" alignment-baseline="middle">Into the Valley</text>
</g>
<g>
<rect id="rect-ForestntLedge" x="315" y="400" rx="12.5" ry="12.5" width="90" height="25" stroke="orange" stroke-width="2" fill="rgb(255, 255, 255)"></rect>
<text x="360" y="412.5" font-family="calibri" font-size="11" font-weight="bold" fill="black" text-anchor="middle" alignment-baseline="middle">Forest n t Ledge</text>
</g>
<g>
<rect id="rect-NeartheValley" x="525" y="400" rx="12.5" ry="12.5" width="90" height="25" stroke="orange" stroke-width="2" fill="rgb(255, 255, 255)"></rect>
<text x="570" y="412.5" font-family="calibri" font-size="11" font-weight="bold" fill="black" text-anchor="middle" alignment-baseline="middle">Near the Valley</text>
</g>
<g>
<rect id="rect-SNAKES2" x="420" y="440" rx="12.5" ry="12.5" width="90" height="25" stroke="orange" stroke-width="2" fill="rgb(210, 210, 210)"></rect>
<text x="465" y="452.5" font-family="calibri" font-size="11" font-weight="bold" fill="black" text-anchor="middle" alignment-baseline="middle">SNAKES2</text>
</g>
<g>
<rect id="rect-SNAKES" x="420" y="480" rx="12.5" ry="12.5" width="90" height="25" stroke="orange" stroke-width="2" fill="rgb(210, 210, 210)"></rect>
<text x="465" y="492.5" font-family="calibri" font-size="11" font-weight="bold" fill="black" text-anchor="middle" alignment-baseline="middle">SNAKES</text>
</g>
<g>
<rect id="rect-MntnSeaPath" x="630" y="480" rx="12.5" ry="12.5" width="90" height="25" stroke="orange" stroke-width="2" fill="rgb(255, 255, 255)"></rect>
<text x="675" y="492.5" font-family="calibri" font-size="11" font-weight="bold" fill="black" text-anchor="middle" alignment-baseline="middle">Mntn Sea Path</text>
</g>
<g>
<rect id="rect-MntnSeaPathII" x="735" y="480" rx="12.5" ry="12.5" width="90" height="25" stroke="orange" stroke-width="2" fill="rgb(255, 255, 255)"></rect>
<text x="780" y="492.5" font-family="calibri" font-size="11" font-weight="bold" fill="black" text-anchor="middle" alignment-baseline="middle">Mntn Sea Path II</text>
</g>
<g>
<rect id="rect-AokiSeaPort" x="840" y="480" rx="12.5" ry="12.5" width="90" height="25" stroke="orange" stroke-width="2" fill="rgb(255, 255, 255)"></rect>
<text x="885" y="492.5" font-family="calibri" font-size="11" font-weight="bold" fill="black" text-anchor="middle" alignment-baseline="middle">Aoki Sea Port</text>
</g>
<g>
<rect id="rect-LedgeForest" x="315" y="520" rx="12.5" ry="12.5" width="90" height="25" stroke="orange" stroke-width="2" fill="rgb(255, 255, 255)"></rect>
<text x="360" y="532.5" font-family="calibri" font-size="11" font-weight="bold" fill="black" text-anchor="middle" alignment-baseline="middle">Ledge Forest</text>
</g>
<g>
<rect id="rect-LedgeForestEnc" x="420" y="520" rx="12.5" ry="12.5" width="90" height="25" stroke="orange" stroke-width="2" fill="rgb(255, 255, 255)"></rect>
<text x="465" y="532.5" font-family="calibri" font-size="11" font-weight="bold" fill="black" text-anchor="middle" alignment-baseline="middle">Ledge Forest Enc</text>
</g>
<g>
<rect id="rect-DarkClearing" x="525" y="520" rx="12.5" ry="12.5" width="90" height="25" stroke="orange" stroke-width="2" fill="rgb(255, 255, 255)"></rect>
<text x="570" y="532.5" font-family="calibri" font-size="11" font-weight="bold" fill="black" text-anchor="middle" alignment-baseline="middle">Dark Clearing</text>
</g>
<g>
<rect id="rect-MystRockWall" x="630" y="520" rx="12.5" ry="12.5" width="90" height="25" stroke="orange" stroke-width="2" fill="rgb(255, 255, 255)"></rect>
<text x="675" y="532.5" font-family="calibri" font-size="11" font-weight="bold" fill="black" text-anchor="middle" alignment-baseline="middle">Myst Rock Wall</text>
</g>
<g>
<rect id="rect-RiverBank" x="630" y="560" rx="12.5" ry="12.5" width="90" height="25" stroke="orange" stroke-width="2" fill="rgb(255, 255, 255)"></rect>
<text x="675" y="572.5" font-family="calibri" font-size="11" font-weight="bold" fill="black" text-anchor="middle" alignment-baseline="middle">River Bank</text>
</g>
<g>
<rect id="rect-KatabamiBridge" x="210" y="600" rx="12.5" ry="12.5" width="90" height="25" stroke="orange" stroke-width="2" fill="rgb(255, 255, 255)"></rect>
<text x="255" y="612.5" font-family="calibri" font-size="11" font-weight="bold" fill="black" text-anchor="middle" alignment-baseline="middle">Katabami Bridge</text>
</g>
<g>
<rect id="rect-TheForestExit" x="315" y="600" rx="12.5" ry="12.5" width="90" height="25" stroke="orange" stroke-width="2" fill="rgb(255, 255, 255)"></rect>
<text x="360" y="612.5" font-family="calibri" font-size="11" font-weight="bold" fill="black" text-anchor="middle" alignment-baseline="middle">The Forest Exit</text>
</g>
<g>
<rect id="rect-LoRBountyStation" x="420" y="600" rx="12.5" ry="12.5" width="90" height="25" stroke="orange" stroke-width="2" fill="rgb(255, 255, 255)"></rect>
<text x="465" y="612.5" font-family="calibri" font-size="11" font-weight="bold" fill="black" text-anchor="middle" alignment-baseline="middle">LoR Bounty Station</text>
</g>
<g>
<rect id="rect-PathttRiverCountry" x="525" y="600" rx="12.5" ry="12.5" width="90" height="25" stroke="orange" stroke-width="2" fill="rgb(255, 255, 255)"></rect>
<text x="570" y="612.5" font-family="calibri" font-size="11" font-weight="bold" fill="black" text-anchor="middle" alignment-baseline="middle">Path t t River Country</text>
</g>
<g>
<rect id="rect-RiverBend" x="630" y="600" rx="12.5" ry="12.5" width="90" height="25" stroke="orange" stroke-width="2" fill="rgb(255, 255, 255)"></rect>
<text x="675" y="612.5" font-family="calibri" font-size="11" font-weight="bold" fill="black" text-anchor="middle" alignment-baseline="middle">River Bend</text>
</g>
<g>
<rect id="rect-RockySteps" x="630" y="640" rx="12.5" ry="12.5" width="90" height="25" stroke="orange" stroke-width="2" fill="rgb(255, 255, 255)"></rect>
<text x="675" y="652.5" font-family="calibri" font-size="11" font-weight="bold" fill="black" text-anchor="middle" alignment-baseline="middle">Rocky Steps</text>
</g>
</svg>