<svg xmlns="http://www.w3.org/2000/svg" version="1.1" id="svg" width="962" height="704">
<image href="../images/world_map.png" width="962" height="704" style="filter: brightness(120%);"/>
<line x1="150" y1="132.5" x2="255" y2="212.5" stroke="black" stroke-width="2"></line>
<line x1="465" y1="132.5" x2="360" y2="212.5" stroke="black" stroke-width="2"></line>
<line x1="255" y1="212.5" x2="360" y2="212.5" stroke="black" stroke-width="2"></line>
<line x1="360" y1="212.5" x2="360" y2="292.5" stroke="black" stroke-width="2"></line>
<line x1="360" y1="292.5" x2="360" y2="372.5" stroke="black" stroke-width="2"></line>
<line x1="675" y1="332.5" x2="675" y2="372.5" stroke="black" stroke-width="2"></line>
<line x1="780" y1="332.5" x2="780" y2="372.5" stroke="black" stroke-width="2"></line>
<line x1="255" y1="372.5" x2="360" y2="372.5" stroke="black" stroke-width="2"></line>
<line x1="360" y1="372.5" x2="465" y2="372.5" stroke="black" stroke-width="2"></line>
<line x1="360" y1="372.5" x2="360" y2="412.5" stroke="black" stroke-width="2"></line>
<line x1="465" y1="372.5" x2="570" y2="372.5" stroke="black" stroke-width="2"></line>
<line x1="570" y1="372.5" x2="675" y2="372.5" stroke="black" stroke-width="2"></line>
<line x1="675" y1="372.5" x2="780" y2="372.5" stroke="black" stroke-width="2"></line>
<line x1="780" y1="372.5" x2="885" y2="372.5" stroke="black" stroke-width="2"></line>
<line x1="45" y1="412.5" x2="150" y2="412.5" stroke="black" stroke-width="2"></line>
<line x1="45" y1="412.5" x2="885" y2="572.5" stroke="black" stroke-width="2"></line>
<line x1="150" y1="412.5" x2="255" y2="412.5" stroke="black" stroke-width="2"></line>
<line x1="255" y1="412.5" x2="360" y2="412.5" stroke="black" stroke-width="2"></line>
<line x1="465" y1="572.5" x2="675" y2="572.5" stroke="black" stroke-width="2"></line>
<line x1="675" y1="572.5" x2="885" y2="572.5" stroke="black" stroke-width="2"></line>
<g>
<rect id="rect-AntTunnel" x="105" y="120" rx="12.5" ry="12.5" width="90" height="25" stroke="orange" stroke-width="2" fill="rgb(210, 210, 210)"></rect>
<text x="150" y="132.5" font-family="calibri" font-size="11" font-weight="bold" fill="black" text-anchor="middle" alignment-baseline="middle">Ant Tunnel</text>
</g>
<g>
<rect id="rect-SealedTemple" x="420" y="120" rx="12.5" ry="12.5" width="90" height="25" stroke="orange" stroke-width="2" fill="rgb(210, 210, 210)"></rect>
<text x="465" y="132.5" font-family="calibri" font-size="11" font-weight="bold" fill="black" text-anchor="middle" alignment-baseline="middle">Sealed Temple</text>
</g>
<g>
<rect id="rect-BloodyPond" x="210" y="200" rx="12.5" ry="12.5" width="90" height="25" stroke="orange" stroke-width="2" fill="rgb(255, 255, 255)"></rect>
<text x="255" y="212.5" font-family="calibri" font-size="11" font-weight="bold" fill="black" text-anchor="middle" alignment-baseline="middle">Bloody Pond</text>
</g>
<g>
<rect id="rect-BambooForest" x="315" y="200" rx="12.5" ry="12.5" width="90" height="25" stroke="orange" stroke-width="2" fill="rgb(255, 255, 255)"></rect>
<text x="360" y="212.5" font-family="calibri" font-size="11" font-weight="bold" fill="black" text-anchor="middle" alignment-baseline="middle">Bamboo Forest</text>
</g>
<g>
<rect id="rect-MistyHides" x="315" y="280" rx="12.5" ry="12.5" width="90" height="25" stroke="green" stroke-width="2" fill="rgb(255, 255, 255)"></rect>
<text x="360" y="292.5" font-family="calibri" font-size="11" font-weight="bold" fill="black" text-anchor="middle" alignment-baseline="middle">Misty Hides</text>
</g>
<g>
<rect id="rect-MistHousing" x="630" y="320" rx="12.5" ry="12.5" width="90" height="25" stroke="green" stroke-width="2" fill="rgb(255, 255, 255)"></rect>
<text x="675" y="332.5" font-family="calibri" font-size="11" font-weight="bold" fill="black" text-anchor="middle" alignment-baseline="middle">Mist Housing</text>
</g>
<g>
<rect id="rect-SilkyCrater" x="735" y="320" rx="12.5" ry="12.5" width="90" height="25" stroke="green" stroke-width="2" fill="rgb(255, 255, 255)"></rect>
<text x="780" y="332.5" font-family="calibri" font-size="11" font-weight="bold" fill="black" text-anchor="middle" alignment-baseline="middle">Silky Crater</text>
</g>
<g>
<rect id="rect-LoWBountyStation" x="210" y="360" rx="12.5" ry="12.5" width="90" height="25" stroke="orange" stroke-width="2" fill="rgb(255, 255, 255)"></rect>
<text x="255" y="372.5" font-family="calibri" font-size="11" font-weight="bold" fill="black" text-anchor="middle" alignment-baseline="middle">LoW Bounty Station</text>
</g>
<g>
<rect id="rect-3WayRoadSplit" x="315" y="360" rx="12.5" ry="12.5" width="90" height="25" stroke="green" stroke-width="2" fill="rgb(255, 255, 255)"></rect>
<text x="360" y="372.5" font-family="calibri" font-size="11" font-weight="bold" fill="black" text-anchor="middle" alignment-baseline="middle">3 Way Road Split</text>
</g>
<g>
<rect id="rect-SlightSlope" x="420" y="360" rx="12.5" ry="12.5" width="90" height="25" stroke="green" stroke-width="2" fill="rgb(255, 255, 255)"></rect>
<text x="465" y="372.5" font-family="calibri" font-size="11" font-weight="bold" fill="black" text-anchor="middle" alignment-baseline="middle">Slight Slope</text>
</g>
<g>
<rect id="rect-MistVillageWE" x="525" y="360" rx="12.5" ry="12.5" width="90" height="25" stroke="green" stroke-width="2" fill="rgb(255, 255, 255)"></rect>
<text x="570" y="372.5" font-family="calibri" font-size="11" font-weight="bold" fill="black" text-anchor="middle" alignment-baseline="middle">Mist Village WE</text>
</g>
<g>
<rect id="rect-MistVillage" x="630" y="360" rx="12.5" ry="12.5" width="90" height="25" stroke="orange" stroke-width="2" fill="rgb(255, 255, 255)"></rect>
<text x="675" y="372.5" font-family="calibri" font-size="11" font-weight="bold" fill="black" text-anchor="middle" alignment-baseline="middle">Mist Village</text>
</g>
<g>
<rect id="rect-MistVillageEE" x="735" y="360" rx="12.5" ry="12.5" width="90" height="25" stroke="green" stroke-width="2" fill="rgb(255, 255, 255)"></rect>
<text x="780" y="372.5" font-family="calibri" font-size="11" font-weight="bold" fill="black" text-anchor="middle" alignment-baseline="middle">Mist Village EE</text>
</g>
<g>
<rect id="rect-WindyPond" x="840" y="360" rx="12.5" ry="12.5" width="90" height="25" stroke="green" stroke-width="2" fill="rgb(255, 255, 255)"></rect>
<text x="885" y="372.5" font-family="calibri" font-size="11" font-weight="bold" fill="black" text-anchor="middle" alignment-baseline="middle">Windy Pond</text>
</g>
<g>
<rect id="rect-LoWPort" x="0" y="400" rx="12.5" ry="12.5" width="90" height="25" stroke="orange" stroke-width="2" fill="rgb(255, 255, 255)"></rect>
<text x="45" y="412.5" font-family="calibri" font-size="11" font-weight="bold" fill="black" text-anchor="middle" alignment-baseline="middle">LoW Port</text>
</g>
<g>
<rect id="rect-TotoriVillage" x="105" y="400" rx="12.5" ry="12.5" width="90" height="25" stroke="green" stroke-width="2" fill="rgb(255, 255, 255)"></rect>
<text x="150" y="412.5" font-family="calibri" font-size="11" font-weight="bold" fill="black" text-anchor="middle" alignment-baseline="middle">Totori Village</text>
</g>
<g>
<rect id="rect-ByTheRiver" x="210" y="400" rx="12.5" ry="12.5" width="90" height="25" stroke="orange" stroke-width="2" fill="rgb(255, 255, 255)"></rect>
<text x="255" y="412.5" font-family="calibri" font-size="11" font-weight="bold" fill="black" text-anchor="middle" alignment-baseline="middle">By The River</text>
</g>
<g>
<rect id="rect-BigSlope" x="315" y="400" rx="12.5" ry="12.5" width="90" height="25" stroke="orange" stroke-width="2" fill="rgb(255, 255, 255)"></rect>
<text x="360" y="412.5" font-family="calibri" font-size="11" font-weight="bold" fill="black" text-anchor="middle" alignment-baseline="middle">Big Slope</text>
</g>
<g>
<rect id="rect-SouthEasternSeaIII" x="420" y="560" rx="12.5" ry="12.5" width="90" height="25" stroke="orange" stroke-width="2" fill="rgb(160, 200, 250)"></rect>
<text x="465" y="572.5" font-family="calibri" font-size="11" font-weight="bold" fill="black" text-anchor="middle" alignment-baseline="middle">South Eastern Sea III</text>
</g>
<g>
<rect id="rect-SouthEasternSeaIV" x="630" y="560" rx="12.5" ry="12.5" width="90" height="25" stroke="red" stroke-width="2" fill="rgb(160, 200, 250)"></rect>
<text x="675" y="572.5" font-family="calibri" font-size="11" font-weight="bold" fill="black" text-anchor="middle" alignment-baseline="middle">South Eastern Sea IV</text>
</g>
<g>
<rect id="rect-SouthEasternSeaV" x="840" y="560" rx="12.5" ry="12.5" width="90" height="25" stroke="orange" stroke-width="2" fill="rgb(160, 200, 250)"></rect>
<text x="885" y="572.5" font-family="calibri" font-size="11" font-weight="bold" fill="black" text-anchor="middle" alignment-baseline="middle">South Eastern Sea V</text>
</g>
</svg>