<svg xmlns="http://www.w3.org/2000/svg" version="1.1" id="svg" width="962" height="704">
<image href="../images/world_map.png" width="962" height="704" style="filter: brightness(120%);"/>
<line x1="255" y1="332.5" x2="255" y2="372.5" stroke="black" stroke-width="2"></line>
<line x1="45" y1="372.5" x2="45" y2="412.5" stroke="black" stroke-width="2"></line>
<line x1="255" y1="372.5" x2="255" y2="412.5" stroke="black" stroke-width="2"></line>
<line x1="675" y1="372.5" x2="675" y2="412.5" stroke="black" stroke-width="2"></line>
<line x1="675" y1="372.5" x2="780" y2="372.5" stroke="black" stroke-width="2"></line>
<line x1="780" y1="372.5" x2="885" y2="372.5" stroke="black" stroke-width="2"></line>
<line x1="45" y1="412.5" x2="45" y2="452.5" stroke="black" stroke-width="2"></line>
<line x1="255" y1="412.5" x2="255" y2="452.5" stroke="black" stroke-width="2"></line>
<line x1="570" y1="412.5" x2="570" y2="452.5" stroke="black" stroke-width="2"></line>
<line x1="570" y1="412.5" x2="675" y2="412.5" stroke="black" stroke-width="2"></line>
<line x1="45" y1="452.5" x2="150" y2="452.5" stroke="black" stroke-width="2"></line>
<line x1="150" y1="452.5" x2="255" y2="452.5" stroke="black" stroke-width="2"></line>
<line x1="255" y1="452.5" x2="360" y2="452.5" stroke="black" stroke-width="2"></line>
<line x1="360" y1="452.5" x2="465" y2="452.5" stroke="black" stroke-width="2"></line>
<line x1="465" y1="452.5" x2="465" y2="492.5" stroke="black" stroke-width="2"></line>
<line x1="465" y1="452.5" x2="570" y2="452.5" stroke="black" stroke-width="2"></line>
<line x1="570" y1="452.5" x2="675" y2="452.5" stroke="black" stroke-width="2"></line>
<line x1="675" y1="412.5" x2="675" y2="452.5" stroke="black" stroke-width="2"></line>
<line x1="465" y1="492.5" x2="465" y2="532.5" stroke="black" stroke-width="2"></line>
<line x1="360" y1="532.5" x2="465" y2="532.5" stroke="black" stroke-width="2"></line>
<line x1="465" y1="532.5" x2="570" y2="532.5" stroke="black" stroke-width="2"></line>
<g>
<rect id="rect-DeeperDesertCavern" x="210" y="320" rx="12.5" ry="12.5" width="90" height="25" stroke="orange" stroke-width="2" fill="rgb(210, 210, 210)"></rect>
<text x="255" y="332.5" font-family="calibri" font-size="11" font-weight="bold" fill="black" text-anchor="middle" alignment-baseline="middle">Deeper Desert Cavern</text>
</g>
<g>
<rect id="rect-BloodPuppetFact" x="0" y="360" rx="12.5" ry="12.5" width="90" height="25" stroke="orange" stroke-width="2" fill="rgb(210, 210, 210)"></rect>
<text x="45" y="372.5" font-family="calibri" font-size="11" font-weight="bold" fill="black" text-anchor="middle" alignment-baseline="middle">Blood Puppet Fact</text>
</g>
<g>
<rect id="rect-SecretDesertCavern" x="210" y="360" rx="12.5" ry="12.5" width="90" height="25" stroke="green" stroke-width="2" fill="rgb(210, 210, 210)"></rect>
<text x="255" y="372.5" font-family="calibri" font-size="11" font-weight="bold" fill="black" text-anchor="middle" alignment-baseline="middle">Secret Desert Cavern</text>
</g>
<g>
<rect id="rect-DesertRoad" x="630" y="360" rx="12.5" ry="12.5" width="90" height="25" stroke="orange" stroke-width="2" fill="rgb(255, 255, 255)"></rect>
<text x="675" y="372.5" font-family="calibri" font-size="11" font-weight="bold" fill="black" text-anchor="middle" alignment-baseline="middle">Desert Road</text>
</g>
<g>
<rect id="rect-DesertPlains" x="735" y="360" rx="12.5" ry="12.5" width="90" height="25" stroke="orange" stroke-width="2" fill="rgb(255, 255, 255)"></rect>
<text x="780" y="372.5" font-family="calibri" font-size="11" font-weight="bold" fill="black" text-anchor="middle" alignment-baseline="middle">Desert Plains</text>
</g>
<g>
<rect id="rect-DesertExit" x="840" y="360" rx="12.5" ry="12.5" width="90" height="25" stroke="orange" stroke-width="2" fill="rgb(255, 255, 255)"></rect>
<text x="885" y="372.5" font-family="calibri" font-size="11" font-weight="bold" fill="black" text-anchor="middle" alignment-baseline="middle">Desert Exit</text>
</g>
<g>
<rect id="rect-OldKomoriVillage" x="0" y="400" rx="12.5" ry="12.5" width="90" height="25" stroke="orange" stroke-width="2" fill="rgb(255, 255, 255)"></rect>
<text x="45" y="412.5" font-family="calibri" font-size="11" font-weight="bold" fill="black" text-anchor="middle" alignment-baseline="middle">Old Komori Village</text>
</g>
<g>
<rect id="rect-DesertCaveEnt" x="210" y="400" rx="12.5" ry="12.5" width="90" height="25" stroke="green" stroke-width="2" fill="rgb(255, 255, 255)"></rect>
<text x="255" y="412.5" font-family="calibri" font-size="11" font-weight="bold" fill="black" text-anchor="middle" alignment-baseline="middle">Desert Cave Ent</text>
</g>
<g>
<rect id="rect-EDesertValley" x="525" y="400" rx="12.5" ry="12.5" width="90" height="25" stroke="orange" stroke-width="2" fill="rgb(255, 255, 255)"></rect>
<text x="570" y="412.5" font-family="calibri" font-size="11" font-weight="bold" fill="black" text-anchor="middle" alignment-baseline="middle">E Desert Valley</text>
</g>
<g>
<rect id="rect-InfestedDesertRoad" x="630" y="400" rx="12.5" ry="12.5" width="90" height="25" stroke="orange" stroke-width="2" fill="rgb(255, 255, 255)"></rect>
<text x="675" y="412.5" font-family="calibri" font-size="11" font-weight="bold" fill="black" text-anchor="middle" alignment-baseline="middle">Infested Desert Road</text>
</g>
<g>
<rect id="rect-DesertOasis" x="0" y="440" rx="12.5" ry="12.5" width="90" height="25" stroke="green" stroke-width="2" fill="rgb(255, 255, 255)"></rect>
<text x="45" y="452.5" font-family="calibri" font-size="11" font-weight="bold" fill="black" text-anchor="middle" alignment-baseline="middle">Desert Oasis</text>
</g>
<g>
<rect id="rect-WDesertValley" x="105" y="440" rx="12.5" ry="12.5" width="90" height="25" stroke="green" stroke-width="2" fill="rgb(255, 255, 255)"></rect>
<text x="150" y="452.5" font-family="calibri" font-size="11" font-weight="bold" fill="black" text-anchor="middle" alignment-baseline="middle">W Desert Valley</text>
</g>
<g>
<rect id="rect-SandHiveGrnd" x="210" y="440" rx="12.5" ry="12.5" width="90" height="25" stroke="green" stroke-width="2" fill="rgb(255, 255, 255)"></rect>
<text x="255" y="452.5" font-family="calibri" font-size="11" font-weight="bold" fill="black" text-anchor="middle" alignment-baseline="middle">Sand Hive Grnd</text>
</g>
<g>
<rect id="rect-SandNestingGrnd" x="315" y="440" rx="12.5" ry="12.5" width="90" height="25" stroke="green" stroke-width="2" fill="rgb(255, 255, 255)"></rect>
<text x="360" y="452.5" font-family="calibri" font-size="11" font-weight="bold" fill="black" text-anchor="middle" alignment-baseline="middle">Sand Nesting Grnd</text>
</g>
<g>
<rect id="rect-SVNEntrance" x="420" y="440" rx="12.5" ry="12.5" width="90" height="25" stroke="green" stroke-width="2" fill="rgb(255, 255, 255)"></rect>
<text x="465" y="452.5" font-family="calibri" font-size="11" font-weight="bold" fill="black" text-anchor="middle" alignment-baseline="middle">SV N Entrance</text>
</g>
<g>
<rect id="rect-DesertPalms" x="525" y="440" rx="12.5" ry="12.5" width="90" height="25" stroke="green" stroke-width="2" fill="rgb(255, 255, 255)"></rect>
<text x="570" y="452.5" font-family="calibri" font-size="11" font-weight="bold" fill="black" text-anchor="middle" alignment-baseline="middle">Desert Palms</text>
</g>
<g>
<rect id="rect-DesertWarzone" x="630" y="440" rx="12.5" ry="12.5" width="90" height="25" stroke="red" stroke-width="2" fill="rgb(160, 115, 115)"></rect>
<text x="675" y="452.5" font-family="calibri" font-size="11" font-weight="bold" fill="black" text-anchor="middle" alignment-baseline="middle">Desert Warzone</text>
</g>
<g>
<rect id="rect-SandVillage" x="420" y="480" rx="0" ry="0" width="90" height="25" stroke="black" stroke-width="2" fill="orange"></rect>
<text x="465" y="492.5" font-family="calibri" font-size="11" font-weight="bold" fill="black" text-anchor="middle" alignment-baseline="middle">Sand Village</text>
</g>
<g>
<rect id="rect-CrestfallenTree" x="315" y="520" rx="12.5" ry="12.5" width="90" height="25" stroke="green" stroke-width="2" fill="rgb(255, 255, 255)"></rect>
<text x="360" y="532.5" font-family="calibri" font-size="11" font-weight="bold" fill="black" text-anchor="middle" alignment-baseline="middle">Crestfallen Tree</text>
</g>
<g>
<rect id="rect-SVSEntrance" x="420" y="520" rx="12.5" ry="12.5" width="90" height="25" stroke="green" stroke-width="2" fill="rgb(255, 255, 255)"></rect>
<text x="465" y="532.5" font-family="calibri" font-size="11" font-weight="bold" fill="black" text-anchor="middle" alignment-baseline="middle">SV S Entrance</text>
</g>
<g>
<rect id="rect-HowlingCanyon" x="525" y="520" rx="12.5" ry="12.5" width="90" height="25" stroke="green" stroke-width="2" fill="rgb(255, 255, 255)"></rect>
<text x="570" y="532.5" font-family="calibri" font-size="11" font-weight="bold" fill="black" text-anchor="middle" alignment-baseline="middle">Howling Canyon</text>
</g>
</svg>