<svg xmlns="http://www.w3.org/2000/svg" version="1.1" id="svg" width="962" height="704">
<line x1="180" y1="12.5" x2="405" y2="12.5" stroke="grey" stroke-width="2"></line>
<line x1="180" y1="12.5" x2="330" y2="92.5" stroke="grey" stroke-width="2"></line>
<line x1="180" y1="12.5" x2="180" y2="212.5" stroke="grey" stroke-width="2"></line>
<line x1="405" y1="12.5" x2="480" y2="52.5" stroke="grey" stroke-width="2"></line>
<line x1="405" y1="12.5" x2="405" y2="212.5" stroke="grey" stroke-width="2"></line>
<line x1="555" y1="12.5" x2="480" y2="52.5" stroke="grey" stroke-width="2"></line>
<line x1="555" y1="12.5" x2="630" y2="52.5" stroke="grey" stroke-width="2"></line>
<line x1="930" y1="12.5" x2="930" y2="52.5" stroke="grey" stroke-width="2"></line>
<line x1="330" y1="52.5" x2="330" y2="92.5" stroke="grey" stroke-width="2"></line>
<line x1="480" y1="52.5" x2="555" y2="52.5" stroke="grey" stroke-width="2"></line>
<line x1="555" y1="52.5" x2="555" y2="92.5" stroke="grey" stroke-width="2"></line>
<line x1="555" y1="52.5" x2="630" y2="52.5" stroke="grey" stroke-width="2"></line>
<line x1="630" y1="52.5" x2="705" y2="52.5" stroke="grey" stroke-width="2"></line>
<line x1="705" y1="52.5" x2="780" y2="52.5" stroke="grey" stroke-width="2"></line>
<line x1="780" y1="52.5" x2="855" y2="52.5" stroke="grey" stroke-width="2"></line>
<line x1="780" y1="52.5" x2="780" y2="92.5" stroke="grey" stroke-width="2"></line>
<line x1="855" y1="52.5" x2="930" y2="52.5" stroke="grey" stroke-width="2"></line>
<line x1="255" y1="92.5" x2="330" y2="92.5" stroke="grey" stroke-width="2"></line>
<line x1="255" y1="92.5" x2="255" y2="172.5" stroke="grey" stroke-width="2"></line>
<line x1="255" y1="92.5" x2="330" y2="172.5" stroke="grey" stroke-width="2"></line>
<line x1="255" y1="92.5" x2="180" y2="212.5" stroke="grey" stroke-width="2"></line>
<line x1="330" y1="92.5" x2="330" y2="132.5" stroke="grey" stroke-width="2"></line>
<line x1="330" y1="92.5" x2="480" y2="132.5" stroke="grey" stroke-width="2"></line>
<line x1="480" y1="52.5" x2="480" y2="92.5" stroke="grey" stroke-width="2"></line>
<line x1="480" y1="92.5" x2="555" y2="92.5" stroke="grey" stroke-width="2"></line>
<line x1="780" y1="92.5" x2="855" y2="92.5" stroke="grey" stroke-width="2"></line>
<line x1="855" y1="92.5" x2="930" y2="92.5" stroke="grey" stroke-width="2"></line>
<line x1="30" y1="132.5" x2="30" y2="172.5" stroke="grey" stroke-width="2"></line>
<line x1="105" y1="132.5" x2="30" y2="172.5" stroke="grey" stroke-width="2"></line>
<line x1="105" y1="132.5" x2="105" y2="172.5" stroke="grey" stroke-width="2"></line>
<line x1="480" y1="132.5" x2="555" y2="132.5" stroke="grey" stroke-width="2"></line>
<line x1="555" y1="132.5" x2="630" y2="132.5" stroke="grey" stroke-width="2"></line>
<line x1="555" y1="132.5" x2="555" y2="172.5" stroke="grey" stroke-width="2"></line>
<line x1="630" y1="132.5" x2="555" y2="172.5" stroke="grey" stroke-width="2"></line>
<line x1="30" y1="172.5" x2="30" y2="212.5" stroke="grey" stroke-width="2"></line>
<line x1="105" y1="172.5" x2="105" y2="212.5" stroke="grey" stroke-width="2"></line>
<line x1="255" y1="172.5" x2="330" y2="172.5" stroke="grey" stroke-width="2"></line>
<line x1="555" y1="172.5" x2="555" y2="212.5" stroke="grey" stroke-width="2"></line>
<line x1="555" y1="172.5" x2="630" y2="212.5" stroke="grey" stroke-width="2"></line>
<line x1="30" y1="212.5" x2="105" y2="212.5" stroke="grey" stroke-width="2"></line>
<line x1="105" y1="212.5" x2="180" y2="212.5" stroke="grey" stroke-width="2"></line>
<line x1="180" y1="212.5" x2="405" y2="212.5" stroke="grey" stroke-width="2"></line>
<line x1="405" y1="212.5" x2="555" y2="212.5" stroke="grey" stroke-width="2"></line>
<line x1="405" y1="212.5" x2="405" y2="332.5" stroke="grey" stroke-width="2"></line>
<line x1="405" y1="212.5" x2="480" y2="252.5" stroke="grey" stroke-width="2"></line>
<line x1="555" y1="212.5" x2="630" y2="212.5" stroke="grey" stroke-width="2"></line>
<line x1="630" y1="212.5" x2="705" y2="212.5" stroke="grey" stroke-width="2"></line>
<line x1="705" y1="212.5" x2="780" y2="212.5" stroke="grey" stroke-width="2"></line>
<line x1="780" y1="212.5" x2="855" y2="212.5" stroke="grey" stroke-width="2"></line>
<line x1="105" y1="252.5" x2="30" y2="292.5" stroke="grey" stroke-width="2"></line>
<line x1="105" y1="252.5" x2="180" y2="252.5" stroke="grey" stroke-width="2"></line>
<line x1="180" y1="252.5" x2="255" y2="252.5" stroke="grey" stroke-width="2"></line>
<line x1="180" y1="252.5" x2="180" y2="292.5" stroke="grey" stroke-width="2"></line>
<line x1="255" y1="252.5" x2="180" y2="292.5" stroke="grey" stroke-width="2"></line>
<line x1="480" y1="252.5" x2="555" y2="292.5" stroke="grey" stroke-width="2"></line>
<line x1="630" y1="252.5" x2="555" y2="292.5" stroke="grey" stroke-width="2"></line>
<line x1="630" y1="252.5" x2="705" y2="292.5" stroke="grey" stroke-width="2"></line>
<line x1="180" y1="292.5" x2="255" y2="292.5" stroke="grey" stroke-width="2"></line>
<line x1="255" y1="292.5" x2="330" y2="292.5" stroke="grey" stroke-width="2"></line>
<line x1="255" y1="292.5" x2="255" y2="332.5" stroke="grey" stroke-width="2"></line>
<line x1="330" y1="292.5" x2="405" y2="332.5" stroke="grey" stroke-width="2"></line>
<line x1="555" y1="292.5" x2="705" y2="292.5" stroke="grey" stroke-width="2"></line>
<line x1="555" y1="292.5" x2="555" y2="332.5" stroke="grey" stroke-width="2"></line>
<line x1="705" y1="292.5" x2="705" y2="332.5" stroke="grey" stroke-width="2"></line>
<line x1="405" y1="332.5" x2="480" y2="372.5" stroke="grey" stroke-width="2"></line>
<line x1="555" y1="332.5" x2="555" y2="372.5" stroke="grey" stroke-width="2"></line>
<line x1="555" y1="332.5" x2="630" y2="372.5" stroke="grey" stroke-width="2"></line>
<line x1="705" y1="332.5" x2="630" y2="372.5" stroke="grey" stroke-width="2"></line>
<line x1="105" y1="372.5" x2="180" y2="372.5" stroke="grey" stroke-width="2"></line>
<line x1="180" y1="292.5" x2="180" y2="372.5" stroke="grey" stroke-width="2"></line>
<line x1="180" y1="372.5" x2="180" y2="412.5" stroke="grey" stroke-width="2"></line>
<line x1="330" y1="372.5" x2="330" y2="412.5" stroke="grey" stroke-width="2"></line>
<line x1="330" y1="372.5" x2="405" y2="412.5" stroke="grey" stroke-width="2"></line>
<line x1="405" y1="372.5" x2="405" y2="412.5" stroke="grey" stroke-width="2"></line>
<line x1="480" y1="372.5" x2="480" y2="452.5" stroke="grey" stroke-width="2"></line>
<line x1="555" y1="372.5" x2="555" y2="412.5" stroke="grey" stroke-width="2"></line>
<line x1="180" y1="372.5" x2="105" y2="412.5" stroke="grey" stroke-width="2"></line>
<line x1="180" y1="412.5" x2="180" y2="452.5" stroke="grey" stroke-width="2"></line>
<line x1="255" y1="412.5" x2="330" y2="412.5" stroke="grey" stroke-width="2"></line>
<line x1="255" y1="412.5" x2="180" y2="452.5" stroke="grey" stroke-width="2"></line>
<line x1="255" y1="412.5" x2="255" y2="452.5" stroke="grey" stroke-width="2"></line>
<line x1="405" y1="412.5" x2="405" y2="452.5" stroke="grey" stroke-width="2"></line>
<line x1="555" y1="412.5" x2="555" y2="452.5" stroke="grey" stroke-width="2"></line>
<line x1="180" y1="452.5" x2="255" y2="452.5" stroke="grey" stroke-width="2"></line>
<line x1="330" y1="412.5" x2="255" y2="452.5" stroke="grey" stroke-width="2"></line>
<line x1="330" y1="412.5" x2="330" y2="452.5" stroke="grey" stroke-width="2"></line>
<line x1="330" y1="452.5" x2="255" y2="492.5" stroke="grey" stroke-width="2"></line>
<line x1="405" y1="452.5" x2="405" y2="492.5" stroke="grey" stroke-width="2"></line>
<line x1="480" y1="452.5" x2="555" y2="452.5" stroke="grey" stroke-width="2"></line>
<line x1="480" y1="452.5" x2="405" y2="492.5" stroke="grey" stroke-width="2"></line>
<line x1="480" y1="452.5" x2="480" y2="492.5" stroke="grey" stroke-width="2"></line>
<line x1="630" y1="412.5" x2="555" y2="452.5" stroke="grey" stroke-width="2"></line>
<line x1="630" y1="412.5" x2="630" y2="492.5" stroke="grey" stroke-width="2"></line>
<line x1="705" y1="452.5" x2="780" y2="452.5" stroke="grey" stroke-width="2"></line>
<line x1="705" y1="452.5" x2="480" y2="492.5" stroke="grey" stroke-width="2"></line>
<line x1="255" y1="492.5" x2="255" y2="532.5" stroke="grey" stroke-width="2"></line>
<line x1="405" y1="492.5" x2="330" y2="532.5" stroke="grey" stroke-width="2"></line>
<line x1="480" y1="492.5" x2="480" y2="532.5" stroke="grey" stroke-width="2"></line>
<line x1="630" y1="492.5" x2="480" y2="532.5" stroke="grey" stroke-width="2"></line>
<line x1="255" y1="532.5" x2="330" y2="532.5" stroke="grey" stroke-width="2"></line>
<line x1="255" y1="532.5" x2="255" y2="572.5" stroke="grey" stroke-width="2"></line>
<line x1="480" y1="532.5" x2="630" y2="532.5" stroke="grey" stroke-width="2"></line>
<line x1="480" y1="532.5" x2="405" y2="572.5" stroke="grey" stroke-width="2"></line>
<line x1="480" y1="532.5" x2="630" y2="572.5" stroke="grey" stroke-width="2"></line>
<line x1="630" y1="532.5" x2="705" y2="532.5" stroke="grey" stroke-width="2"></line>
<line x1="630" y1="532.5" x2="630" y2="572.5" stroke="grey" stroke-width="2"></line>
<line x1="705" y1="452.5" x2="705" y2="532.5" stroke="grey" stroke-width="2"></line>
<line x1="705" y1="532.5" x2="780" y2="532.5" stroke="grey" stroke-width="2"></line>
<line x1="705" y1="532.5" x2="705" y2="652.5" stroke="grey" stroke-width="2"></line>
<line x1="30" y1="572.5" x2="105" y2="612.5" stroke="grey" stroke-width="2"></line>
<line x1="30" y1="572.5" x2="30" y2="652.5" stroke="grey" stroke-width="2"></line>
<line x1="255" y1="572.5" x2="405" y2="572.5" stroke="grey" stroke-width="2"></line>
<line x1="255" y1="572.5" x2="255" y2="612.5" stroke="grey" stroke-width="2"></line>
<line x1="405" y1="572.5" x2="255" y2="612.5" stroke="grey" stroke-width="2"></line>
<line x1="405" y1="572.5" x2="480" y2="612.5" stroke="grey" stroke-width="2"></line>
<line x1="405" y1="572.5" x2="405" y2="652.5" stroke="grey" stroke-width="2"></line>
<line x1="630" y1="572.5" x2="630" y2="612.5" stroke="grey" stroke-width="2"></line>
<line x1="105" y1="612.5" x2="180" y2="612.5" stroke="grey" stroke-width="2"></line>
<line x1="105" y1="612.5" x2="30" y2="652.5" stroke="grey" stroke-width="2"></line>
<line x1="105" y1="612.5" x2="105" y2="652.5" stroke="grey" stroke-width="2"></line>
<line x1="180" y1="612.5" x2="255" y2="612.5" stroke="grey" stroke-width="2"></line>
<line x1="180" y1="612.5" x2="105" y2="652.5" stroke="grey" stroke-width="2"></line>
<line x1="180" y1="612.5" x2="180" y2="652.5" stroke="grey" stroke-width="2"></line>
<line x1="255" y1="612.5" x2="255" y2="652.5" stroke="grey" stroke-width="2"></line>
<line x1="480" y1="612.5" x2="555" y2="612.5" stroke="grey" stroke-width="2"></line>
<line x1="480" y1="612.5" x2="480" y2="652.5" stroke="grey" stroke-width="2"></line>
<line x1="480" y1="612.5" x2="555" y2="652.5" stroke="grey" stroke-width="2"></line>
<line x1="555" y1="612.5" x2="555" y2="652.5" stroke="grey" stroke-width="2"></line>
<line x1="105" y1="652.5" x2="180" y2="652.5" stroke="grey" stroke-width="2"></line>
<line x1="105" y1="652.5" x2="105" y2="692.5" stroke="grey" stroke-width="2"></line>
<line x1="180" y1="652.5" x2="255" y2="652.5" stroke="grey" stroke-width="2"></line>
<line x1="180" y1="652.5" x2="180" y2="692.5" stroke="grey" stroke-width="2"></line>
<line x1="405" y1="652.5" x2="480" y2="652.5" stroke="grey" stroke-width="2"></line>
<line x1="480" y1="652.5" x2="555" y2="652.5" stroke="grey" stroke-width="2"></line>
<line x1="480" y1="652.5" x2="480" y2="692.5" stroke="grey" stroke-width="2"></line>
<line x1="555" y1="652.5" x2="705" y2="652.5" stroke="grey" stroke-width="2"></line>
<line x1="705" y1="652.5" x2="780" y2="652.5" stroke="grey" stroke-width="2"></line>
<line x1="705" y1="652.5" x2="630" y2="692.5" stroke="grey" stroke-width="2"></line>
<line x1="480" y1="692.5" x2="630" y2="692.5" stroke="grey" stroke-width="2"></line>
<g>
<rect id="rect-Kaimon" x="150" y="0" rx="12.5" ry="12.5" width="60" height="25" stroke="black" stroke-width="2" fill="rgb(95, 130, 95)"></rect>
<text x="180" y="12.5" font-family="calibri" font-size="10" font-weight="bold" fill="black" text-anchor="middle" alignment-baseline="middle">Kaimon</text>
</g>
<g>
<rect id="rect-Kausaaja" x="375" y="0" rx="12.5" ry="12.5" width="60" height="25" stroke="black" stroke-width="2" fill="rgb(95, 130, 95)"></rect>
<text x="405" y="12.5" font-family="calibri" font-size="10" font-weight="bold" fill="black" text-anchor="middle" alignment-baseline="middle">Kausaaja</text>
</g>
<g>
<rect id="rect-Uhvosa" x="525" y="0" rx="12.5" ry="12.5" width="60" height="25" stroke="black" stroke-width="2" fill="rgb(95, 130, 95)"></rect>
<text x="555" y="12.5" font-family="calibri" font-size="10" font-weight="bold" fill="black" text-anchor="middle" alignment-baseline="middle">Uhvosa</text>
</g>
<g>
<rect id="rect-Mara" x="900" y="0" rx="0" ry="0" width="60" height="25" stroke="black" stroke-width="2" fill="rgb(95, 130, 95)"></rect>
<text x="930" y="12.5" font-family="calibri" font-size="10" font-weight="bold" fill="black" text-anchor="middle" alignment-baseline="middle">Mara</text>
</g>
<g>
<rect id="rect-Vellaine" x="300" y="40" rx="0" ry="0" width="60" height="25" stroke="black" stroke-width="2" fill="rgb(95, 130, 95)"></rect>
<text x="330" y="52.5" font-family="calibri" font-size="10" font-weight="bold" fill="black" text-anchor="middle" alignment-baseline="middle">Vellaine</text>
</g>
<g>
<rect id="rect-Auviken" x="450" y="40" rx="12.5" ry="12.5" width="60" height="25" stroke="black" stroke-width="2" fill="rgb(95, 130, 95)"></rect>
<text x="480" y="52.5" font-family="calibri" font-size="10" font-weight="bold" fill="black" text-anchor="middle" alignment-baseline="middle">Auviken</text>
</g>
<g>
<rect id="rect-Oijamon" x="525" y="40" rx="12.5" ry="12.5" width="60" height="25" stroke="black" stroke-width="2" fill="rgb(95, 130, 95)"></rect>
<text x="555" y="52.5" font-family="calibri" font-size="10" font-weight="bold" fill="black" text-anchor="middle" alignment-baseline="middle">Oijamon</text>
</g>
<g>
<rect id="rect-Jeras" x="600" y="40" rx="12.5" ry="12.5" width="60" height="25" stroke="black" stroke-width="2" fill="rgb(95, 130, 95)"></rect>
<text x="630" y="52.5" font-family="calibri" font-size="10" font-weight="bold" fill="black" text-anchor="middle" alignment-baseline="middle">Jeras</text>
</g>
<g>
<rect id="rect-Usi" x="675" y="40" rx="12.5" ry="12.5" width="60" height="25" stroke="black" stroke-width="2" fill="rgb(95, 130, 95)"></rect>
<text x="705" y="52.5" font-family="calibri" font-size="10" font-weight="bold" fill="black" text-anchor="middle" alignment-baseline="middle">Usi</text>
</g>
<g>
<rect id="rect-Ishomilk" x="750" y="40" rx="12.5" ry="12.5" width="60" height="25" stroke="black" stroke-width="2" fill="rgb(95, 130, 95)"></rect>
<text x="780" y="52.5" font-family="calibri" font-size="10" font-weight="bold" fill="black" text-anchor="middle" alignment-baseline="middle">Ishomilk</text>
</g>
<g>
<rect id="rect-Wikkishima" x="825" y="40" rx="12.5" ry="12.5" width="60" height="25" stroke="black" stroke-width="2" fill="rgb(95, 130, 95)"></rect>
<text x="855" y="52.5" font-family="calibri" font-size="10" font-weight="bold" fill="black" text-anchor="middle" alignment-baseline="middle">Wikkishima</text>
</g>
<g>
<rect id="rect-Hasama" x="900" y="40" rx="12.5" ry="12.5" width="60" height="25" stroke="black" stroke-width="2" fill="rgb(95, 130, 95)"></rect>
<text x="930" y="52.5" font-family="calibri" font-size="10" font-weight="bold" fill="black" text-anchor="middle" alignment-baseline="middle">Hasama</text>
</g>
<g>
<rect id="rect-Aikoro" x="225" y="80" rx="12.5" ry="12.5" width="60" height="25" stroke="black" stroke-width="2" fill="rgb(95, 130, 95)"></rect>
<text x="255" y="92.5" font-family="calibri" font-size="10" font-weight="bold" fill="black" text-anchor="middle" alignment-baseline="middle">Aikoro</text>
</g>
<g>
<rect id="rect-Alikara" x="300" y="80" rx="12.5" ry="12.5" width="60" height="25" stroke="black" stroke-width="2" fill="rgb(95, 130, 95)"></rect>
<text x="330" y="92.5" font-family="calibri" font-size="10" font-weight="bold" fill="black" text-anchor="middle" alignment-baseline="middle">Alikara</text>
</g>
<g>
<rect id="rect-Kakki" x="450" y="80" rx="12.5" ry="12.5" width="60" height="25" stroke="black" stroke-width="2" fill="rgb(95, 130, 95)"></rect>
<text x="480" y="92.5" font-family="calibri" font-size="10" font-weight="bold" fill="black" text-anchor="middle" alignment-baseline="middle">Kakki</text>
</g>
<g>
<rect id="rect-Saikanen" x="525" y="80" rx="12.5" ry="12.5" width="60" height="25" stroke="black" stroke-width="2" fill="rgb(95, 130, 95)"></rect>
<text x="555" y="92.5" font-family="calibri" font-size="10" font-weight="bold" fill="black" text-anchor="middle" alignment-baseline="middle">Saikanen</text>
</g>
<g>
<rect id="rect-Uuna" x="750" y="80" rx="12.5" ry="12.5" width="60" height="25" stroke="black" stroke-width="2" fill="rgb(95, 130, 95)"></rect>
<text x="780" y="92.5" font-family="calibri" font-size="10" font-weight="bold" fill="black" text-anchor="middle" alignment-baseline="middle">Uuna</text>
</g>
<g>
<rect id="rect-Hanjona" x="825" y="80" rx="12.5" ry="12.5" width="60" height="25" stroke="black" stroke-width="2" fill="rgb(95, 130, 95)"></rect>
<text x="855" y="92.5" font-family="calibri" font-size="10" font-weight="bold" fill="black" text-anchor="middle" alignment-baseline="middle">Hanjona</text>
</g>
<g>
<rect id="rect-Mushikegi" x="900" y="80" rx="0" ry="0" width="60" height="25" stroke="black" stroke-width="2" fill="rgb(95, 130, 95)"></rect>
<text x="930" y="92.5" font-family="calibri" font-size="10" font-weight="bold" fill="black" text-anchor="middle" alignment-baseline="middle">Mushikegi</text>
</g>
<g>
<rect id="rect-Horkkisen" x="0" y="120" rx="12.5" ry="12.5" width="60" height="25" stroke="black" stroke-width="2" fill="rgb(95, 130, 95)"></rect>
<text x="30" y="132.5" font-family="calibri" font-size="10" font-weight="bold" fill="black" text-anchor="middle" alignment-baseline="middle">Horkkisen</text>
</g>
<g>
<rect id="rect-Erila" x="75" y="120" rx="12.5" ry="12.5" width="60" height="25" stroke="black" stroke-width="2" fill="rgb(95, 130, 95)"></rect>
<text x="105" y="132.5" font-family="calibri" font-size="10" font-weight="bold" fill="black" text-anchor="middle" alignment-baseline="middle">Erila</text>
</g>
<g>
<rect id="rect-Isanamo" x="300" y="120" rx="0" ry="0" width="60" height="25" stroke="black" stroke-width="2" fill="rgb(95, 130, 95)"></rect>
<text x="330" y="132.5" font-family="calibri" font-size="10" font-weight="bold" fill="black" text-anchor="middle" alignment-baseline="middle">Isanamo</text>
</g>
<g>
<rect id="rect-New Caldari" x="450" y="120" rx="0" ry="0" width="60" height="25" stroke="black" stroke-width="2" fill="rgb(95, 130, 95)"></rect>
<text x="480" y="132.5" font-family="calibri" font-size="10" font-weight="bold" fill="black" text-anchor="middle" alignment-baseline="middle">New Caldari</text>
</g>
<g>
<rect id="rect-Jita" x="525" y="120" rx="0" ry="0" width="60" height="25" stroke="black" stroke-width="2" fill="rgb(95, 130, 95)"></rect>
<text x="555" y="132.5" font-family="calibri" font-size="10" font-weight="bold" fill="black" text-anchor="middle" alignment-baseline="middle">Jita</text>
</g>
<g>
<rect id="rect-Maurasi" x="600" y="120" rx="0" ry="0" width="60" height="25" stroke="black" stroke-width="2" fill="rgb(95, 130, 95)"></rect>
<text x="630" y="132.5" font-family="calibri" font-size="10" font-weight="bold" fill="black" text-anchor="middle" alignment-baseline="middle">Maurasi</text>
</g>
<g>
<rect id="rect-Eitu" x="0" y="160" rx="12.5" ry="12.5" width="60" height="25" stroke="black" stroke-width="2" fill="rgb(95, 130, 95)"></rect>
<text x="30" y="172.5" font-family="calibri" font-size="10" font-weight="bold" fill="black" text-anchor="middle" alignment-baseline="middle">Eitu</text>
</g>
<g>
<rect id="rect-Inoue" x="75" y="160" rx="12.5" ry="12.5" width="60" height="25" stroke="black" stroke-width="2" fill="rgb(95, 130, 95)"></rect>
<text x="105" y="172.5" font-family="calibri" font-size="10" font-weight="bold" fill="black" text-anchor="middle" alignment-baseline="middle">Inoue</text>
</g>
<g>
<rect id="rect-Isikemi" x="225" y="160" rx="0" ry="0" width="60" height="25" stroke="black" stroke-width="2" fill="rgb(95, 130, 95)"></rect>
<text x="255" y="172.5" font-family="calibri" font-size="10" font-weight="bold" fill="black" text-anchor="middle" alignment-baseline="middle">Isikemi</text>
</g>
<g>
<rect id="rect-Funtanai" x="300" y="160" rx="0" ry="0" width="60" height="25" stroke="black" stroke-width="2" fill="rgb(95, 130, 95)"></rect>
<text x="330" y="172.5" font-family="calibri" font-size="10" font-weight="bold" fill="black" text-anchor="middle" alignment-baseline="middle">Funtanai</text>
</g>
<g>
<rect id="rect-Huvolail" x="525" y="160" rx="12.5" ry="12.5" width="60" height="25" stroke="black" stroke-width="2" fill="rgb(95, 130, 95)"></rect>
<text x="555" y="172.5" font-family="calibri" font-size="10" font-weight="bold" fill="black" text-anchor="middle" alignment-baseline="middle">Huvolail</text>
</g>
<g>
<rect id="rect-Konola" x="0" y="200" rx="12.5" ry="12.5" width="60" height="25" stroke="black" stroke-width="2" fill="rgb(95, 130, 95)"></rect>
<text x="30" y="212.5" font-family="calibri" font-size="10" font-weight="bold" fill="black" text-anchor="middle" alignment-baseline="middle">Konola</text>
</g>
<g>
<rect id="rect-Isaziwa" x="75" y="200" rx="12.5" ry="12.5" width="60" height="25" stroke="black" stroke-width="2" fill="rgb(95, 130, 95)"></rect>
<text x="105" y="212.5" font-family="calibri" font-size="10" font-weight="bold" fill="black" text-anchor="middle" alignment-baseline="middle">Isaziwa</text>
</g>
<g>
<rect id="rect-Oiniken" x="150" y="200" rx="12.5" ry="12.5" width="60" height="25" stroke="black" stroke-width="2" fill="rgb(95, 130, 95)"></rect>
<text x="180" y="212.5" font-family="calibri" font-size="10" font-weight="bold" fill="black" text-anchor="middle" alignment-baseline="middle">Oiniken</text>
</g>
<g>
<rect id="rect-Ahynda" x="375" y="200" rx="12.5" ry="12.5" width="60" height="25" stroke="black" stroke-width="2" fill="rgb(95, 130, 95)"></rect>
<text x="405" y="212.5" font-family="calibri" font-size="10" font-weight="bold" fill="black" text-anchor="middle" alignment-baseline="middle">Ahynda</text>
</g>
<g>
<rect id="rect-Paara" x="525" y="200" rx="12.5" ry="12.5" width="60" height="25" stroke="black" stroke-width="2" fill="rgb(95, 130, 95)"></rect>
<text x="555" y="212.5" font-family="calibri" font-size="10" font-weight="bold" fill="black" text-anchor="middle" alignment-baseline="middle">Paara</text>
</g>
<g>
<rect id="rect-Annaro" x="600" y="200" rx="12.5" ry="12.5" width="60" height="25" stroke="black" stroke-width="2" fill="rgb(95, 130, 95)"></rect>
<text x="630" y="212.5" font-family="calibri" font-size="10" font-weight="bold" fill="black" text-anchor="middle" alignment-baseline="middle">Annaro</text>
</g>
<g>
<rect id="rect-Isutaka" x="675" y="200" rx="12.5" ry="12.5" width="60" height="25" stroke="black" stroke-width="2" fill="rgb(95, 130, 95)"></rect>
<text x="705" y="212.5" font-family="calibri" font-size="10" font-weight="bold" fill="black" text-anchor="middle" alignment-baseline="middle">Isutaka</text>
</g>
<g>
<rect id="rect-Iasabesh" x="750" y="200" rx="12.5" ry="12.5" width="60" height="25" stroke="black" stroke-width="2" fill="rgb(95, 130, 95)"></rect>
<text x="780" y="212.5" font-family="calibri" font-size="10" font-weight="bold" fill="black" text-anchor="middle" alignment-baseline="middle">Iasabesh</text>
</g>
<g>
<rect id="rect-Ono" x="825" y="200" rx="12.5" ry="12.5" width="60" height="25" stroke="black" stroke-width="2" fill="rgb(95, 130, 95)"></rect>
<text x="855" y="212.5" font-family="calibri" font-size="10" font-weight="bold" fill="black" text-anchor="middle" alignment-baseline="middle">Ono</text>
</g>
<g>
<rect id="rect-Tannolen" x="75" y="240" rx="12.5" ry="12.5" width="60" height="25" stroke="black" stroke-width="2" fill="rgb(95, 130, 95)"></rect>
<text x="105" y="252.5" font-family="calibri" font-size="10" font-weight="bold" fill="black" text-anchor="middle" alignment-baseline="middle">Tannolen</text>
</g>
<g>
<rect id="rect-Onatoh" x="150" y="240" rx="12.5" ry="12.5" width="60" height="25" stroke="black" stroke-width="2" fill="rgb(95, 130, 95)"></rect>
<text x="180" y="252.5" font-family="calibri" font-size="10" font-weight="bold" fill="black" text-anchor="middle" alignment-baseline="middle">Onatoh</text>
</g>
<g>
<rect id="rect-Eranakko" x="225" y="240" rx="12.5" ry="12.5" width="60" height="25" stroke="black" stroke-width="2" fill="rgb(95, 130, 95)"></rect>
<text x="255" y="252.5" font-family="calibri" font-size="10" font-weight="bold" fill="black" text-anchor="middle" alignment-baseline="middle">Eranakko</text>
</g>
<g>
<rect id="rect-Komo" x="450" y="240" rx="12.5" ry="12.5" width="60" height="25" stroke="black" stroke-width="2" fill="rgb(95, 130, 95)"></rect>
<text x="480" y="252.5" font-family="calibri" font-size="10" font-weight="bold" fill="black" text-anchor="middle" alignment-baseline="middle">Komo</text>
</g>
<g>
<rect id="rect-Motsu" x="600" y="240" rx="12.5" ry="12.5" width="60" height="25" stroke="black" stroke-width="2" fill="rgb(95, 130, 95)"></rect>
<text x="630" y="252.5" font-family="calibri" font-size="10" font-weight="bold" fill="black" text-anchor="middle" alignment-baseline="middle">Motsu</text>
</g>
<g>
<rect id="rect-Tierijev" x="0" y="280" rx="0" ry="0" width="60" height="25" stroke="black" stroke-width="2" fill="rgb(95, 130, 95)"></rect>
<text x="30" y="292.5" font-family="calibri" font-size="10" font-weight="bold" fill="black" text-anchor="middle" alignment-baseline="middle">Tierijev</text>
</g>
<g>
<rect id="rect-Sujarento" x="150" y="280" rx="12.5" ry="12.5" width="60" height="25" stroke="black" stroke-width="2" fill="rgb(95, 130, 95)"></rect>
<text x="180" y="292.5" font-family="calibri" font-size="10" font-weight="bold" fill="black" text-anchor="middle" alignment-baseline="middle">Sujarento</text>
</g>
<g>
<rect id="rect-Tama" x="225" y="280" rx="12.5" ry="12.5" width="60" height="25" stroke="black" stroke-width="2" fill="rgb(95, 130, 95)"></rect>
<text x="255" y="292.5" font-family="calibri" font-size="10" font-weight="bold" fill="black" text-anchor="middle" alignment-baseline="middle">Tama</text>
</g>
<g>
<rect id="rect-Norwuken" x="300" y="280" rx="0" ry="0" width="60" height="25" stroke="black" stroke-width="2" fill="rgb(95, 130, 95)"></rect>
<text x="330" y="292.5" font-family="calibri" font-size="10" font-weight="bold" fill="black" text-anchor="middle" alignment-baseline="middle">Norwuken</text>
</g>
<g>
<rect id="rect-Oichya" x="525" y="280" rx="12.5" ry="12.5" width="60" height="25" stroke="black" stroke-width="2" fill="rgb(95, 130, 95)"></rect>
<text x="555" y="292.5" font-family="calibri" font-size="10" font-weight="bold" fill="black" text-anchor="middle" alignment-baseline="middle">Oichya</text>
</g>
<g>
<rect id="rect-Laah" x="675" y="280" rx="12.5" ry="12.5" width="60" height="25" stroke="black" stroke-width="2" fill="rgb(95, 130, 95)"></rect>
<text x="705" y="292.5" font-family="calibri" font-size="10" font-weight="bold" fill="black" text-anchor="middle" alignment-baseline="middle">Laah</text>
</g>
<g>
<rect id="rect-Kedama" x="225" y="320" rx="0" ry="0" width="60" height="25" stroke="black" stroke-width="2" fill="rgb(95, 130, 95)"></rect>
<text x="255" y="332.5" font-family="calibri" font-size="10" font-weight="bold" fill="black" text-anchor="middle" alignment-baseline="middle">Kedama</text>
</g>
<g>
<rect id="rect-Tunttaras" x="375" y="320" rx="0" ry="0" width="60" height="25" stroke="black" stroke-width="2" fill="rgb(95, 130, 95)"></rect>
<text x="405" y="332.5" font-family="calibri" font-size="10" font-weight="bold" fill="black" text-anchor="middle" alignment-baseline="middle">Tunttaras</text>
</g>
<g>
<rect id="rect-Isenaios" x="525" y="320" rx="12.5" ry="12.5" width="60" height="25" stroke="black" stroke-width="2" fill="rgb(95, 130, 95)"></rect>
<text x="555" y="332.5" font-family="calibri" font-size="10" font-weight="bold" fill="black" text-anchor="middle" alignment-baseline="middle">Isenaios</text>
</g>
<g>
<rect id="rect-Aramachi" x="675" y="320" rx="12.5" ry="12.5" width="60" height="25" stroke="black" stroke-width="2" fill="rgb(95, 130, 95)"></rect>
<text x="705" y="332.5" font-family="calibri" font-size="10" font-weight="bold" fill="black" text-anchor="middle" alignment-baseline="middle">Aramachi</text>
</g>
<g>
<rect id="rect-Deven" x="75" y="360" rx="0" ry="0" width="60" height="25" stroke="black" stroke-width="2" fill="rgb(95, 130, 95)"></rect>
<text x="105" y="372.5" font-family="calibri" font-size="10" font-weight="bold" fill="black" text-anchor="middle" alignment-baseline="middle">Deven</text>
</g>
<g>
<rect id="rect-Nagama" x="150" y="360" rx="12.5" ry="12.5" width="60" height="25" stroke="black" stroke-width="2" fill="rgb(95, 130, 95)"></rect>
<text x="180" y="372.5" font-family="calibri" font-size="10" font-weight="bold" fill="black" text-anchor="middle" alignment-baseline="middle">Nagama</text>
</g>
<g>
<rect id="rect-Kaunokka" x="300" y="360" rx="12.5" ry="12.5" width="60" height="25" stroke="black" stroke-width="2" fill="rgb(95, 130, 95)"></rect>
<text x="330" y="372.5" font-family="calibri" font-size="10" font-weight="bold" fill="black" text-anchor="middle" alignment-baseline="middle">Kaunokka</text>
</g>
<g>
<rect id="rect-Kino" x="375" y="360" rx="0" ry="0" width="60" height="25" stroke="black" stroke-width="2" fill="rgb(95, 130, 95)"></rect>
<text x="405" y="372.5" font-family="calibri" font-size="10" font-weight="bold" fill="black" text-anchor="middle" alignment-baseline="middle">Kino</text>
</g>
<g>
<rect id="rect-Serekuwa" x="450" y="360" rx="0" ry="0" width="60" height="25" stroke="black" stroke-width="2" fill="rgb(95, 130, 95)"></rect>
<text x="480" y="372.5" font-family="calibri" font-size="10" font-weight="bold" fill="black" text-anchor="middle" alignment-baseline="middle">Serekuwa</text>
</g>
<g>
<rect id="rect-Uotila" x="525" y="360" rx="12.5" ry="12.5" width="60" height="25" stroke="black" stroke-width="2" fill="rgb(95, 130, 95)"></rect>
<text x="555" y="372.5" font-family="calibri" font-size="10" font-weight="bold" fill="black" text-anchor="middle" alignment-baseline="middle">Uotila</text>
</g>
<g>
<rect id="rect-Saila" x="600" y="360" rx="12.5" ry="12.5" width="60" height="25" stroke="black" stroke-width="2" fill="rgb(95, 130, 95)"></rect>
<text x="630" y="372.5" font-family="calibri" font-size="10" font-weight="bold" fill="black" text-anchor="middle" alignment-baseline="middle">Saila</text>
</g>
<g>
<rect id="rect-Oto" x="75" y="400" rx="12.5" ry="12.5" width="60" height="25" stroke="black" stroke-width="2" fill="rgb(95, 130, 95)"></rect>
<text x="105" y="412.5" font-family="calibri" font-size="10" font-weight="bold" fill="black" text-anchor="middle" alignment-baseline="middle">Oto</text>
</g>
<g>
<rect id="rect-Hasmija" x="150" y="400" rx="12.5" ry="12.5" width="60" height="25" stroke="black" stroke-width="2" fill="rgb(95, 130, 95)"></rect>
<text x="180" y="412.5" font-family="calibri" font-size="10" font-weight="bold" fill="black" text-anchor="middle" alignment-baseline="middle">Hasmija</text>
</g>
<g>
<rect id="rect-Oisio" x="225" y="400" rx="12.5" ry="12.5" width="60" height="25" stroke="black" stroke-width="2" fill="rgb(95, 130, 95)"></rect>
<text x="255" y="412.5" font-family="calibri" font-size="10" font-weight="bold" fill="black" text-anchor="middle" alignment-baseline="middle">Oisio</text>
</g>
<g>
<rect id="rect-Ytia" x="300" y="400" rx="12.5" ry="12.5" width="60" height="25" stroke="black" stroke-width="2" fill="rgb(95, 130, 95)"></rect>
<text x="330" y="412.5" font-family="calibri" font-size="10" font-weight="bold" fill="black" text-anchor="middle" alignment-baseline="middle">Ytia</text>
</g>
<g>
<rect id="rect-Venilen" x="375" y="400" rx="12.5" ry="12.5" width="60" height="25" stroke="black" stroke-width="2" fill="rgb(95, 130, 95)"></rect>
<text x="405" y="412.5" font-family="calibri" font-size="10" font-weight="bold" fill="black" text-anchor="middle" alignment-baseline="middle">Venilen</text>
</g>
<g>
<rect id="rect-Waira" x="525" y="400" rx="12.5" ry="12.5" width="60" height="25" stroke="black" stroke-width="2" fill="rgb(95, 130, 95)"></rect>
<text x="555" y="412.5" font-family="calibri" font-size="10" font-weight="bold" fill="black" text-anchor="middle" alignment-baseline="middle">Waira</text>
</g>
<g>
<rect id="rect-Hysera" x="150" y="440" rx="12.5" ry="12.5" width="60" height="25" stroke="black" stroke-width="2" fill="rgb(95, 130, 95)"></rect>
<text x="180" y="452.5" font-family="calibri" font-size="10" font-weight="bold" fill="black" text-anchor="middle" alignment-baseline="middle">Hysera</text>
</g>
<g>
<rect id="rect-Oshaima" x="225" y="440" rx="12.5" ry="12.5" width="60" height="25" stroke="black" stroke-width="2" fill="rgb(95, 130, 95)"></rect>
<text x="255" y="452.5" font-family="calibri" font-size="10" font-weight="bold" fill="black" text-anchor="middle" alignment-baseline="middle">Oshaima</text>
</g>
<g>
<rect id="rect-Kulelen" x="300" y="440" rx="12.5" ry="12.5" width="60" height="25" stroke="black" stroke-width="2" fill="rgb(95, 130, 95)"></rect>
<text x="330" y="452.5" font-family="calibri" font-size="10" font-weight="bold" fill="black" text-anchor="middle" alignment-baseline="middle">Kulelen</text>
</g>
<g>
<rect id="rect-Hogimo" x="375" y="440" rx="12.5" ry="12.5" width="60" height="25" stroke="black" stroke-width="2" fill="rgb(95, 130, 95)"></rect>
<text x="405" y="452.5" font-family="calibri" font-size="10" font-weight="bold" fill="black" text-anchor="middle" alignment-baseline="middle">Hogimo</text>
</g>
<g>
<rect id="rect-Halaima" x="450" y="440" rx="12.5" ry="12.5" width="60" height="25" stroke="black" stroke-width="2" fill="rgb(95, 130, 95)"></rect>
<text x="480" y="452.5" font-family="calibri" font-size="10" font-weight="bold" fill="black" text-anchor="middle" alignment-baseline="middle">Halaima</text>
</g>
<g>
<rect id="rect-Sankkas" x="525" y="440" rx="12.5" ry="12.5" width="60" height="25" stroke="black" stroke-width="2" fill="rgb(95, 130, 95)"></rect>
<text x="555" y="452.5" font-family="calibri" font-size="10" font-weight="bold" fill="black" text-anchor="middle" alignment-baseline="middle">Sankkas</text>
</g>
<g>
<rect id="rect-Tintoh" x="600" y="400" rx="12.5" ry="12.5" width="60" height="25" stroke="black" stroke-width="2" fill="rgb(95, 130, 95)"></rect>
<text x="630" y="412.5" font-family="calibri" font-size="10" font-weight="bold" fill="black" text-anchor="middle" alignment-baseline="middle">Tintoh</text>
</g>
<g>
<rect id="rect-Kaapute" x="675" y="440" rx="12.5" ry="12.5" width="60" height="25" stroke="black" stroke-width="2" fill="rgb(95, 130, 95)"></rect>
<text x="705" y="452.5" font-family="calibri" font-size="10" font-weight="bold" fill="black" text-anchor="middle" alignment-baseline="middle">Kaapute</text>
</g>
<g>
<rect id="rect-Niarja" x="750" y="440" rx="12.5" ry="12.5" width="60" height="25" stroke="black" stroke-width="2" fill="rgb(95, 130, 95)"></rect>
<text x="780" y="452.5" font-family="calibri" font-size="10" font-weight="bold" fill="black" text-anchor="middle" alignment-baseline="middle">Niarja</text>
</g>
<g>
<rect id="rect-Tunudan" x="225" y="480" rx="12.5" ry="12.5" width="60" height="25" stroke="black" stroke-width="2" fill="rgb(95, 130, 95)"></rect>
<text x="255" y="492.5" font-family="calibri" font-size="10" font-weight="bold" fill="black" text-anchor="middle" alignment-baseline="middle">Tunudan</text>
</g>
<g>
<rect id="rect-Huttaken" x="375" y="480" rx="12.5" ry="12.5" width="60" height="25" stroke="black" stroke-width="2" fill="rgb(95, 130, 95)"></rect>
<text x="405" y="492.5" font-family="calibri" font-size="10" font-weight="bold" fill="black" text-anchor="middle" alignment-baseline="middle">Huttaken</text>
</g>
<g>
<rect id="rect-Kamio" x="450" y="480" rx="12.5" ry="12.5" width="60" height="25" stroke="black" stroke-width="2" fill="rgb(95, 130, 95)"></rect>
<text x="480" y="492.5" font-family="calibri" font-size="10" font-weight="bold" fill="black" text-anchor="middle" alignment-baseline="middle">Kamio</text>
</g>
<g>
<rect id="rect-Santola" x="600" y="480" rx="12.5" ry="12.5" width="60" height="25" stroke="black" stroke-width="2" fill="rgb(95, 130, 95)"></rect>
<text x="630" y="492.5" font-family="calibri" font-size="10" font-weight="bold" fill="black" text-anchor="middle" alignment-baseline="middle">Santola</text>
</g>
<g>
<rect id="rect-Enderailen" x="225" y="520" rx="12.5" ry="12.5" width="60" height="25" stroke="black" stroke-width="2" fill="rgb(95, 130, 95)"></rect>
<text x="255" y="532.5" font-family="calibri" font-size="10" font-weight="bold" fill="black" text-anchor="middle" alignment-baseline="middle">Enderailen</text>
</g>
<g>
<rect id="rect-Rairomon" x="300" y="520" rx="12.5" ry="12.5" width="60" height="25" stroke="black" stroke-width="2" fill="rgb(95, 130, 95)"></rect>
<text x="330" y="532.5" font-family="calibri" font-size="10" font-weight="bold" fill="black" text-anchor="middle" alignment-baseline="middle">Rairomon</text>
</g>
<g>
<rect id="rect-Ikao" x="450" y="520" rx="12.5" ry="12.5" width="60" height="25" stroke="black" stroke-width="2" fill="rgb(95, 130, 95)"></rect>
<text x="480" y="532.5" font-family="calibri" font-size="10" font-weight="bold" fill="black" text-anchor="middle" alignment-baseline="middle">Ikao</text>
</g>
<g>
<rect id="rect-Waskisen" x="600" y="520" rx="12.5" ry="12.5" width="60" height="25" stroke="black" stroke-width="2" fill="rgb(95, 130, 95)"></rect>
<text x="630" y="532.5" font-family="calibri" font-size="10" font-weight="bold" fill="black" text-anchor="middle" alignment-baseline="middle">Waskisen</text>
</g>
<g>
<rect id="rect-Inaro" x="675" y="520" rx="12.5" ry="12.5" width="60" height="25" stroke="black" stroke-width="2" fill="rgb(95, 130, 95)"></rect>
<text x="705" y="532.5" font-family="calibri" font-size="10" font-weight="bold" fill="black" text-anchor="middle" alignment-baseline="middle">Inaro</text>
</g>
<g>
<rect id="rect-Sirseshin" x="750" y="520" rx="0" ry="0" width="60" height="25" stroke="black" stroke-width="2" fill="rgb(95, 130, 95)"></rect>
<text x="780" y="532.5" font-family="calibri" font-size="10" font-weight="bold" fill="black" text-anchor="middle" alignment-baseline="middle">Sirseshin</text>
</g>
<g>
<rect id="rect-Synchelle" x="0" y="560" rx="0" ry="0" width="60" height="25" stroke="black" stroke-width="2" fill="rgb(95, 130, 95)"></rect>
<text x="30" y="572.5" font-family="calibri" font-size="10" font-weight="bold" fill="black" text-anchor="middle" alignment-baseline="middle">Synchelle</text>
</g>
<g>
<rect id="rect-Kubinen" x="225" y="560" rx="12.5" ry="12.5" width="60" height="25" stroke="black" stroke-width="2" fill="rgb(95, 130, 95)"></rect>
<text x="255" y="572.5" font-family="calibri" font-size="10" font-weight="bold" fill="black" text-anchor="middle" alignment-baseline="middle">Kubinen</text>
</g>
<g>
<rect id="rect-Uedama" x="375" y="560" rx="12.5" ry="12.5" width="60" height="25" stroke="black" stroke-width="2" fill="rgb(95, 130, 95)"></rect>
<text x="405" y="572.5" font-family="calibri" font-size="10" font-weight="bold" fill="black" text-anchor="middle" alignment-baseline="middle">Uedama</text>
</g>
<g>
<rect id="rect-Irjunen" x="600" y="560" rx="12.5" ry="12.5" width="60" height="25" stroke="black" stroke-width="2" fill="rgb(95, 130, 95)"></rect>
<text x="630" y="572.5" font-family="calibri" font-size="10" font-weight="bold" fill="black" text-anchor="middle" alignment-baseline="middle">Irjunen</text>
</g>
<g>
<rect id="rect-Kassigai" x="75" y="600" rx="12.5" ry="12.5" width="60" height="25" stroke="black" stroke-width="2" fill="rgb(95, 130, 95)"></rect>
<text x="105" y="612.5" font-family="calibri" font-size="10" font-weight="bold" fill="black" text-anchor="middle" alignment-baseline="middle">Kassigai</text>
</g>
<g>
<rect id="rect-Hatakani" x="150" y="600" rx="12.5" ry="12.5" width="60" height="25" stroke="black" stroke-width="2" fill="rgb(95, 130, 95)"></rect>
<text x="180" y="612.5" font-family="calibri" font-size="10" font-weight="bold" fill="black" text-anchor="middle" alignment-baseline="middle">Hatakani</text>
</g>
<g>
<rect id="rect-Sivala" x="225" y="600" rx="12.5" ry="12.5" width="60" height="25" stroke="black" stroke-width="2" fill="rgb(95, 130, 95)"></rect>
<text x="255" y="612.5" font-family="calibri" font-size="10" font-weight="bold" fill="black" text-anchor="middle" alignment-baseline="middle">Sivala</text>
</g>
<g>
<rect id="rect-Juunigai" x="450" y="600" rx="12.5" ry="12.5" width="60" height="25" stroke="black" stroke-width="2" fill="rgb(95, 130, 95)"></rect>
<text x="480" y="612.5" font-family="calibri" font-size="10" font-weight="bold" fill="black" text-anchor="middle" alignment-baseline="middle">Juunigai</text>
</g>
<g>
<rect id="rect-Isikesu" x="525" y="600" rx="12.5" ry="12.5" width="60" height="25" stroke="black" stroke-width="2" fill="rgb(95, 130, 95)"></rect>
<text x="555" y="612.5" font-family="calibri" font-size="10" font-weight="bold" fill="black" text-anchor="middle" alignment-baseline="middle">Isikesu</text>
</g>
<g>
<rect id="rect-Inari" x="600" y="600" rx="12.5" ry="12.5" width="60" height="25" stroke="black" stroke-width="2" fill="rgb(95, 130, 95)"></rect>
<text x="630" y="612.5" font-family="calibri" font-size="10" font-weight="bold" fill="black" text-anchor="middle" alignment-baseline="middle">Inari</text>
</g>
<g>
<rect id="rect-Algogille" x="0" y="640" rx="0" ry="0" width="60" height="25" stroke="black" stroke-width="2" fill="rgb(95, 130, 95)"></rect>
<text x="30" y="652.5" font-family="calibri" font-size="10" font-weight="bold" fill="black" text-anchor="middle" alignment-baseline="middle">Algogille</text>
</g>
<g>
<rect id="rect-Rashunen" x="75" y="640" rx="12.5" ry="12.5" width="60" height="25" stroke="black" stroke-width="2" fill="rgb(95, 130, 95)"></rect>
<text x="105" y="652.5" font-family="calibri" font-size="10" font-weight="bold" fill="black" text-anchor="middle" alignment-baseline="middle">Rashunen</text>
</g>
<g>
<rect id="rect-Tennen" x="150" y="640" rx="12.5" ry="12.5" width="60" height="25" stroke="black" stroke-width="2" fill="rgb(95, 130, 95)"></rect>
<text x="180" y="652.5" font-family="calibri" font-size="10" font-weight="bold" fill="black" text-anchor="middle" alignment-baseline="middle">Tennen</text>
</g>
<g>
<rect id="rect-Livinen" x="225" y="640" rx="12.5" ry="12.5" width="60" height="25" stroke="black" stroke-width="2" fill="rgb(95, 130, 95)"></rect>
<text x="255" y="652.5" font-family="calibri" font-size="10" font-weight="bold" fill="black" text-anchor="middle" alignment-baseline="middle">Livinen</text>
</g>
<g>
<rect id="rect-Haatomo" x="375" y="640" rx="12.5" ry="12.5" width="60" height="25" stroke="black" stroke-width="2" fill="rgb(95, 130, 95)"></rect>
<text x="405" y="652.5" font-family="calibri" font-size="10" font-weight="bold" fill="black" text-anchor="middle" alignment-baseline="middle">Haatomo</text>
</g>
<g>
<rect id="rect-Suroken" x="450" y="640" rx="12.5" ry="12.5" width="60" height="25" stroke="black" stroke-width="2" fill="rgb(95, 130, 95)"></rect>
<text x="480" y="652.5" font-family="calibri" font-size="10" font-weight="bold" fill="black" text-anchor="middle" alignment-baseline="middle">Suroken</text>
</g>
<g>
<rect id="rect-Anttiri" x="525" y="640" rx="12.5" ry="12.5" width="60" height="25" stroke="black" stroke-width="2" fill="rgb(95, 130, 95)"></rect>
<text x="555" y="652.5" font-family="calibri" font-size="10" font-weight="bold" fill="black" text-anchor="middle" alignment-baseline="middle">Anttiri</text>
</g>
<g>
<rect id="rect-Sirppala" x="675" y="640" rx="12.5" ry="12.5" width="60" height="25" stroke="black" stroke-width="2" fill="rgb(95, 130, 95)"></rect>
<text x="705" y="652.5" font-family="calibri" font-size="10" font-weight="bold" fill="black" text-anchor="middle" alignment-baseline="middle">Sirppala</text>
</g>
<g>
<rect id="rect-Urhinichi" x="750" y="640" rx="12.5" ry="12.5" width="60" height="25" stroke="black" stroke-width="2" fill="rgb(95, 130, 95)"></rect>
<text x="780" y="652.5" font-family="calibri" font-size="10" font-weight="bold" fill="black" text-anchor="middle" alignment-baseline="middle">Urhinichi</text>
</g>
<g>
<rect id="rect-Jolevier" x="75" y="680" rx="0" ry="0" width="60" height="25" stroke="black" stroke-width="2" fill="rgb(95, 130, 95)"></rect>
<text x="105" y="692.5" font-family="calibri" font-size="10" font-weight="bold" fill="black" text-anchor="middle" alignment-baseline="middle">Jolevier</text>
</g>
<g>
<rect id="rect-Unel" x="150" y="680" rx="0" ry="0" width="60" height="25" stroke="black" stroke-width="2" fill="rgb(95, 130, 95)"></rect>
<text x="180" y="692.5" font-family="calibri" font-size="10" font-weight="bold" fill="black" text-anchor="middle" alignment-baseline="middle">Unel</text>
</g>
<g>
<rect id="rect-Kusomo" x="450" y="680" rx="12.5" ry="12.5" width="60" height="25" stroke="black" stroke-width="2" fill="rgb(95, 130, 95)"></rect>
<text x="480" y="692.5" font-family="calibri" font-size="10" font-weight="bold" fill="black" text-anchor="middle" alignment-baseline="middle">Kusomo</text>
</g>
<g>
<rect id="rect-Urlen" x="600" y="680" rx="0" ry="0" width="60" height="25" stroke="black" stroke-width="2" fill="rgb(95, 130, 95)"></rect>
<text x="630" y="692.5" font-family="calibri" font-size="10" font-weight="bold" fill="black" text-anchor="middle" alignment-baseline="middle">Urlen</text>
</g>
</svg>